<?xml version="1.0" encoding="UTF-8" standalone="no"?>
<svg width="32px" height="32px" viewBox="0 0 32 32" version="1.1" xmlns="http://www.w3.org/2000/svg" xmlns:xlink="http://www.w3.org/1999/xlink" xmlns:sketch="http://www.bohemiancoding.com/sketch/ns">
    <title>abdz</title>
    <description>Created with Sketch (http://www.bohemiancoding.com/sketch)</description>
    <defs></defs>
    <g id="Page-1" stroke="none" stroke-width="1" fill="none" fill-rule="evenodd" sketch:type="MSPage">
        <g id="abdz" sketch:type="MSArtboardGroup">
            <path d="M15.8145302,31.2823719 C7.4802232,31.2823719 0.723218634,24.5246112 0.723218634,16.1901114 C0.723218634,7.85561172 7.4802232,1.09785099 15.8145302,1.09785099 C24.148805,1.09785099 30.9077395,7.85561172 30.9077395,16.1901114 C30.9077395,24.5246112 24.148805,31.2823719 15.8145302,31.2823719 Z" id="Fill-1" fill="#000000" sketch:type="MSShapeGroup"></path>
            <path d="M22.3637273,21.0677711 L16.7227916,8.82699287 C16.6176214,8.59694159 16.3876044,8.4492645 16.1340372,8.4492645 L16.058279,8.4492645 C15.8047118,8.4492645 15.5753118,8.59694159 15.4688047,8.82665007 L9.82858893,21.0674283 C9.69983426,21.3451627 9.78344253,21.6735283 10.0278913,21.8574733 C10.2716202,22.0411441 10.6120522,22.0300718 10.8420692,21.8300838 L16.3764977,17.0504607 L19.952388,17.0504607 L19.3570519,17.645454 L21.1854986,21.6104879 C21.2939939,21.8483549 21.5285359,21.9881819 21.7736702,21.9881819 C21.864443,21.9881819 21.9572725,21.9689167 22.0454742,21.9283638 C22.3708917,21.77839 22.5127755,21.3929144 22.3637273,21.0677711 C22.3637273,21.0677711 22.5127755,21.3929144 22.3637273,21.0677711 L22.3637273,21.0677711 L22.3637273,21.0677711 Z M16.1340372,15.7526301 C15.9791956,15.7526301 15.8275764,15.8091573 15.7099283,15.9104539 L12.2608045,18.8897055 L16.0968094,10.5662437 L18.4865524,15.7526301 L16.1340372,15.7526301 L16.1340372,15.7526301 Z" id="Fill-2" fill="#FFFFFF" sketch:type="MSShapeGroup"></path>
        </g>
    </g>
</svg>